<svg width="333" height="319" viewBox="0 0 333 319" fill="none" xmlns="http://www.w3.org/2000/svg">
<rect x="0.754639" y="-0.00012207" width="332" height="319" fill="#56D05B"/>
<g clip-path="url(#clip0_34_115)">
<path d="M45.2293 155.057L45.2302 155.057L45.232 155.058L45.2329 155.058C46.7491 155.524 48.358 154.675 48.8263 153.158L52.5707 141.03C55.6406 140.611 58.3607 138.166 59.3895 134.834C60.736 130.473 58.7777 125.749 54.671 124.481C50.5644 123.214 46.2841 126.011 44.9376 130.372C43.9088 133.705 44.7774 137.257 47.0766 139.334L43.3322 151.462C42.8639 152.979 43.7139 154.587 45.2293 155.057Z" fill="white" stroke="#006A04" stroke-width="2"/>
<path d="M45.2293 155.057L45.2302 155.057L45.232 155.058L45.2329 155.058C46.7491 155.524 48.358 154.675 48.8263 153.158L52.5707 141.03C55.6406 140.611 58.3607 138.166 59.3895 134.834C60.736 130.473 58.7777 125.749 54.671 124.481C50.5644 123.214 46.2841 126.011 44.9376 130.372C43.9088 133.705 44.7774 137.257 47.0766 139.334L43.3322 151.462C42.8639 152.979 43.7139 154.587 45.2293 155.057Z" fill="white" stroke="#006A04" stroke-width="2"/>
<path d="M45.2293 155.057L45.2302 155.057L45.232 155.058L45.2329 155.058C46.7491 155.524 48.358 154.675 48.8263 153.158L52.5707 141.03C55.6406 140.611 58.3607 138.166 59.3895 134.834C60.736 130.473 58.7777 125.749 54.671 124.481C50.5644 123.214 46.2841 126.011 44.9376 130.372C43.9088 133.705 44.7774 137.257 47.0766 139.334L43.3322 151.462C42.8639 152.979 43.7139 154.587 45.2293 155.057Z" fill="white" stroke="#006A04" stroke-width="2"/>
</g>
<path d="M33.2037 178.234L33.2037 178.234C31.8874 178.946 30.2124 178.489 29.4398 177.207L29.4394 177.207L22.287 165.326C21.7439 164.423 21.2725 164.074 20.8443 163.89C20.442 163.716 20.0386 163.658 19.4398 163.571C19.2838 163.549 19.1145 163.524 18.9286 163.495L33.2037 178.234ZM33.2037 178.234L33.2065 178.232M33.2037 178.234L33.2065 178.232M33.2065 178.232L33.4096 178.122C33.4103 178.121 33.4109 178.121 33.4116 178.121C34.7605 177.391 35.2149 175.715 34.4246 174.403C34.4246 174.403 34.4246 174.403 34.4245 174.403C34.4244 174.403 34.4244 174.403 34.4243 174.403L27.2721 162.522C26.7275 161.617 26.6617 161.071 26.708 160.661C26.7529 160.264 26.8961 159.925 27.1194 159.398C27.1793 159.256 27.245 159.101 27.316 158.928L27.3161 158.928L33.2065 178.232ZM13.439 150.034C13.2077 149.454 13.1871 148.865 13.4072 148.315C13.6664 147.667 14.1905 147.25 14.6484 147.003L15.104 147.845L14.6484 147.003C15.1107 146.753 15.7357 146.55 16.4151 146.661C17.0128 146.759 17.5375 147.08 17.949 147.6C17.75 147.067 17.7313 146.52 17.8968 146.009C18.1071 145.359 18.58 144.875 19.12 144.593C20.2075 144.026 21.776 144.194 22.6314 145.615L22.6314 145.615L24.9293 149.433L25.8661 150.99L26.1455 151.454L26.2211 151.58L26.2407 151.612L26.2453 151.62L13.439 150.034ZM13.439 150.034C13.055 149.574 12.5664 149.276 12.03 149.154C11.3751 149.006 10.7176 149.133 10.1856 149.433C9.65445 149.731 9.20204 150.228 9.00245 150.871C8.79615 151.535 8.88873 152.265 9.29642 152.942C9.94965 154.028 10.8537 155.53 11.5943 156.76L12.5311 158.316L12.8106 158.781L12.8862 158.906L12.9058 158.939L12.9105 158.947L12.9108 158.947L12.9115 158.948C13.9424 160.675 14.8664 161.758 15.8721 162.437C16.8947 163.129 17.9083 163.337 18.9284 163.495L13.439 150.034Z" fill="white" stroke="#006A04" stroke-width="2"/>
<path d="M27.2532 123.66L27.852 122.859C27.6304 122.694 27.3502 122.627 27.0778 122.676L26.0824 122.853C24.9618 123.053 24.2679 124.134 24.4606 125.216L29.7581 154.956C30.0517 156.604 31.604 157.759 33.2741 157.461C34.9442 157.164 36.0021 155.544 35.7086 153.896L33.6919 142.574L36.6888 142.04C37.2325 141.943 37.5948 141.424 37.498 140.88C36.3922 134.673 34.009 130.186 31.8876 127.243C30.8277 125.772 29.8337 124.688 29.0979 123.966C28.73 123.605 28.4263 123.334 28.2108 123.15C28.103 123.059 28.0172 122.989 27.9565 122.941C27.9261 122.916 27.9019 122.897 27.8844 122.884L27.8631 122.868L27.8563 122.862L27.8538 122.861L27.8528 122.86C27.8524 122.86 27.852 122.859 27.2532 123.66Z" fill="white" stroke="#006A04" stroke-width="2" stroke-linejoin="round"/>
<g clip-path="url(#clip1_34_115)">
<path d="M85.3533 81.011L85.3542 81.0112L85.3561 81.0115L85.357 81.0117C86.9167 81.3017 88.4177 80.2738 88.7093 78.7133L91.0407 66.2362C94.0425 65.4682 96.4648 62.7284 97.1054 59.3002C97.9438 54.8133 95.4576 50.3452 91.2328 49.5558C87.008 48.7663 83.0761 52.0352 82.2377 56.5221C81.5971 59.9503 82.8667 63.38 85.3885 65.1801L83.0571 77.6572C82.7656 79.2176 83.7942 80.7182 85.3533 81.011Z" fill="white" stroke="#006A04" stroke-width="2"/>
<path d="M85.3533 81.011L85.3542 81.0112L85.3561 81.0115L85.357 81.0117C86.9167 81.3017 88.4177 80.2738 88.7093 78.7133L91.0407 66.2362C94.0425 65.4682 96.4648 62.7284 97.1054 59.3002C97.9438 54.8133 95.4576 50.3452 91.2328 49.5558C87.008 48.7663 83.0761 52.0352 82.2377 56.5221C81.5971 59.9503 82.8667 63.38 85.3885 65.1801L83.0571 77.6572C82.7656 79.2176 83.7942 80.7182 85.3533 81.011Z" fill="white" stroke="#006A04" stroke-width="2"/>
<path d="M85.3533 81.011L85.3542 81.0112L85.3561 81.0115L85.357 81.0117C86.9167 81.3017 88.4177 80.2738 88.7093 78.7133L91.0407 66.2362C94.0425 65.4682 96.4648 62.7284 97.1054 59.3002C97.9438 54.8133 95.4576 50.3452 91.2328 49.5558C87.008 48.7663 83.0761 52.0352 82.2377 56.5221C81.5971 59.9503 82.8667 63.38 85.3885 65.1801L83.0571 77.6572C82.7656 79.2176 83.7942 80.7182 85.3533 81.011Z" fill="white" stroke="#006A04" stroke-width="2"/>
</g>
<path d="M73.007 108.72L73.007 108.72C71.6742 109.401 70.0105 108.905 69.2683 107.605L69.268 107.605L62.3981 95.5579C61.8765 94.6432 61.4135 94.2831 60.9898 94.0882C60.5916 93.9051 60.1897 93.8373 59.5932 93.7367C59.4377 93.7105 59.2691 93.682 59.0838 93.6488L73.007 108.72ZM73.007 108.72L73.0098 108.719M73.007 108.72L73.0098 108.719M73.0098 108.719L73.2155 108.613C73.2161 108.613 73.2168 108.612 73.2175 108.612C74.5832 107.914 75.0771 106.249 74.318 104.92C74.318 104.919 74.318 104.919 74.3179 104.919C74.3178 104.919 74.3178 104.919 74.3177 104.919L67.448 92.8727C66.925 91.9555 66.872 91.4079 66.9281 90.9987C66.9823 90.603 67.1335 90.2681 67.3692 89.746C67.4324 89.606 67.5017 89.4525 67.5768 89.2807L67.5769 89.2805L73.0098 108.719ZM53.9137 80.0613C53.6962 79.4765 53.6894 78.8874 53.9225 78.3424C54.197 77.7005 54.7307 77.2963 55.1944 77.0596L55.6299 77.9128L55.1944 77.0596C55.6624 76.8207 56.292 76.6329 56.9686 76.76C57.5638 76.8718 58.0808 77.2054 58.4799 77.7349C58.2935 77.1976 58.2878 76.6498 58.4653 76.1427C58.6908 75.4983 59.1751 75.0255 59.7215 74.7568C60.8222 74.2156 62.3862 74.4206 63.2078 75.8613L63.2078 75.8613L65.415 79.7324L66.3147 81.3105L66.5831 81.7814L66.6557 81.9086L66.6745 81.9416L66.6789 81.9494L53.9137 80.0613ZM53.9137 80.0613C53.5407 79.5923 53.0593 79.2836 52.5259 79.1491C51.8746 78.9849 51.2143 79.0971 50.6754 79.3837C50.1373 79.6697 49.6733 80.1552 49.4586 80.7932C49.2367 81.4525 49.312 82.1844 49.7036 82.8708C50.331 83.9717 51.1993 85.4946 51.9107 86.7423L52.8105 88.3203L53.079 88.791L53.1515 88.9182L53.1703 88.9512L53.1749 88.9593L53.1751 88.9596L53.1758 88.9608C54.1657 90.7113 55.0639 91.8156 56.0532 92.5189C57.0592 93.2341 58.0676 93.4662 59.0837 93.6487L53.9137 80.0613Z" fill="white" stroke="#006A04" stroke-width="2"/>
<g clip-path="url(#clip2_34_115)">
<path d="M67.1333 51.8262L67.7321 51.0253C67.5106 50.8596 67.2303 50.7932 66.9579 50.8417L65.9626 51.019C64.8419 51.2186 64.148 52.2998 64.3407 53.3817L69.6383 83.1219C69.9318 84.7699 71.4841 85.925 73.1542 85.6275C74.8243 85.33 75.8823 83.7099 75.5887 82.062L73.572 70.7402L76.5689 70.2063C77.1127 70.1095 77.4749 69.5902 77.3781 69.0465C76.2724 62.8389 73.8892 58.3524 71.7677 55.409C70.7078 53.9384 69.7138 52.8538 68.9781 52.1317C68.6101 51.7706 68.3064 51.4998 68.0909 51.3165C67.9831 51.2248 67.8974 51.155 67.8366 51.1066C67.8062 51.0824 67.7821 51.0635 67.7645 51.05L67.7432 51.0337L67.7364 51.0285L67.7339 51.0267L67.7329 51.0259C67.7325 51.0256 67.7321 51.0253 67.1333 51.8262Z" fill="white" stroke="#006A04" stroke-width="2" stroke-linejoin="round"/>
</g>
<mask id="path-12-outside-1_34_115" maskUnits="userSpaceOnUse" x="96.7546" y="139" width="222" height="91" fill="black">
<rect fill="white" x="96.7546" y="139" width="222" height="91"/>
<path d="M133.155 195C133.155 192.6 132.755 190.767 131.955 189.5C131.155 188.167 129.621 187.5 127.355 187.5C126.021 187.5 124.821 187.767 123.755 188.3C122.755 188.833 121.955 189.667 121.355 190.8C120.821 191.933 120.555 193.333 120.555 195V223H103.255V177H120.555V183.8C121.821 181.4 123.588 179.5 125.855 178.1C128.188 176.633 131.121 175.9 134.655 175.9C140.655 175.9 144.921 177.433 147.455 180.5C149.988 183.5 151.255 187.733 151.255 193.2V223H133.155V195ZM194.139 145H211.439V223H194.139V145ZM156.839 200C156.839 194.733 157.872 190.333 159.939 186.8C162.072 183.267 164.772 180.6 168.039 178.8C171.372 176.933 174.839 176 178.439 176C182.306 176 185.739 176.967 188.739 178.9C191.739 180.833 194.106 183.6 195.839 187.2C197.639 190.733 198.539 195 198.539 200C198.539 204.933 197.639 209.2 195.839 212.8C194.106 216.4 191.739 219.167 188.739 221.1C185.739 223.033 182.306 224 178.439 224C174.839 224 171.372 223.1 168.039 221.3C164.772 219.433 162.072 216.733 159.939 213.2C157.872 209.6 156.839 205.2 156.839 200ZM175.039 200C175.039 202 175.472 203.8 176.339 205.4C177.206 207 178.372 208.233 179.839 209.1C181.306 209.967 182.906 210.4 184.639 210.4C186.172 210.4 187.672 210 189.139 209.2C190.606 208.333 191.806 207.133 192.739 205.6C193.672 204.067 194.139 202.2 194.139 200C194.139 197.8 193.672 195.933 192.739 194.4C191.806 192.867 190.606 191.7 189.139 190.9C187.672 190.033 186.172 189.6 184.639 189.6C182.906 189.6 181.306 190.033 179.839 190.9C178.372 191.767 177.206 193 176.339 194.6C175.472 196.133 175.039 197.933 175.039 200ZM244.325 224C238.658 224 233.758 223.033 229.625 221.1C225.558 219.1 222.425 216.333 220.225 212.8C218.025 209.2 216.925 204.933 216.925 200C216.925 195 217.992 190.733 220.125 187.2C222.258 183.6 225.325 180.833 229.325 178.9C233.325 176.967 238.125 176 243.725 176C249.325 176 254.025 176.9 257.825 178.7C261.625 180.5 264.525 183.133 266.525 186.6C268.525 190 269.525 194.2 269.525 199.2C269.525 200 269.492 200.8 269.425 201.6C269.425 202.333 269.392 203 269.325 203.6H226.425V194.7H253.525L249.825 199.3C250.158 198.767 250.458 198.167 250.725 197.5C250.992 196.833 251.125 196.267 251.125 195.8C251.125 193.933 250.792 192.367 250.125 191.1C249.525 189.767 248.625 188.767 247.425 188.1C246.292 187.367 244.925 187 243.325 187C241.325 187 239.658 187.467 238.325 188.4C236.992 189.333 235.992 190.767 235.325 192.7C234.658 194.567 234.325 196.967 234.325 199.9C234.258 202.5 234.592 204.7 235.325 206.5C236.058 208.3 237.125 209.7 238.525 210.7C239.925 211.633 241.658 212.1 243.725 212.1C246.258 212.1 248.392 211.667 250.125 210.8C251.925 209.867 253.325 208.533 254.325 206.8L269.925 209.9C267.458 214.633 264.092 218.167 259.825 220.5C255.625 222.833 250.458 224 244.325 224ZM292.307 177V223H275.407V177H292.307ZM305.407 194.7C304.674 193.9 303.84 193.267 302.907 192.8C302.04 192.267 300.94 192 299.607 192C298.274 192 297.04 192.367 295.907 193.1C294.774 193.833 293.874 194.933 293.207 196.4C292.607 197.867 292.307 199.7 292.307 201.9L288.707 195C288.707 191.333 289.44 188.067 290.907 185.2C292.374 182.333 294.307 180.067 296.707 178.4C299.174 176.667 301.74 175.8 304.407 175.8C306.074 175.8 307.674 176.2 309.207 177C310.74 177.733 311.874 178.667 312.607 179.8L305.407 194.7Z"/>
</mask>
<path d="M133.155 195C133.155 192.6 132.755 190.767 131.955 189.5C131.155 188.167 129.621 187.5 127.355 187.5C126.021 187.5 124.821 187.767 123.755 188.3C122.755 188.833 121.955 189.667 121.355 190.8C120.821 191.933 120.555 193.333 120.555 195V223H103.255V177H120.555V183.8C121.821 181.4 123.588 179.5 125.855 178.1C128.188 176.633 131.121 175.9 134.655 175.9C140.655 175.9 144.921 177.433 147.455 180.5C149.988 183.5 151.255 187.733 151.255 193.2V223H133.155V195ZM194.139 145H211.439V223H194.139V145ZM156.839 200C156.839 194.733 157.872 190.333 159.939 186.8C162.072 183.267 164.772 180.6 168.039 178.8C171.372 176.933 174.839 176 178.439 176C182.306 176 185.739 176.967 188.739 178.9C191.739 180.833 194.106 183.6 195.839 187.2C197.639 190.733 198.539 195 198.539 200C198.539 204.933 197.639 209.2 195.839 212.8C194.106 216.4 191.739 219.167 188.739 221.1C185.739 223.033 182.306 224 178.439 224C174.839 224 171.372 223.1 168.039 221.3C164.772 219.433 162.072 216.733 159.939 213.2C157.872 209.6 156.839 205.2 156.839 200ZM175.039 200C175.039 202 175.472 203.8 176.339 205.4C177.206 207 178.372 208.233 179.839 209.1C181.306 209.967 182.906 210.4 184.639 210.4C186.172 210.4 187.672 210 189.139 209.2C190.606 208.333 191.806 207.133 192.739 205.6C193.672 204.067 194.139 202.2 194.139 200C194.139 197.8 193.672 195.933 192.739 194.4C191.806 192.867 190.606 191.7 189.139 190.9C187.672 190.033 186.172 189.6 184.639 189.6C182.906 189.6 181.306 190.033 179.839 190.9C178.372 191.767 177.206 193 176.339 194.6C175.472 196.133 175.039 197.933 175.039 200ZM244.325 224C238.658 224 233.758 223.033 229.625 221.1C225.558 219.1 222.425 216.333 220.225 212.8C218.025 209.2 216.925 204.933 216.925 200C216.925 195 217.992 190.733 220.125 187.2C222.258 183.6 225.325 180.833 229.325 178.9C233.325 176.967 238.125 176 243.725 176C249.325 176 254.025 176.9 257.825 178.7C261.625 180.5 264.525 183.133 266.525 186.6C268.525 190 269.525 194.2 269.525 199.2C269.525 200 269.492 200.8 269.425 201.6C269.425 202.333 269.392 203 269.325 203.6H226.425V194.7H253.525L249.825 199.3C250.158 198.767 250.458 198.167 250.725 197.5C250.992 196.833 251.125 196.267 251.125 195.8C251.125 193.933 250.792 192.367 250.125 191.1C249.525 189.767 248.625 188.767 247.425 188.1C246.292 187.367 244.925 187 243.325 187C241.325 187 239.658 187.467 238.325 188.4C236.992 189.333 235.992 190.767 235.325 192.7C234.658 194.567 234.325 196.967 234.325 199.9C234.258 202.5 234.592 204.7 235.325 206.5C236.058 208.3 237.125 209.7 238.525 210.7C239.925 211.633 241.658 212.1 243.725 212.1C246.258 212.1 248.392 211.667 250.125 210.8C251.925 209.867 253.325 208.533 254.325 206.8L269.925 209.9C267.458 214.633 264.092 218.167 259.825 220.5C255.625 222.833 250.458 224 244.325 224ZM292.307 177V223H275.407V177H292.307ZM305.407 194.7C304.674 193.9 303.84 193.267 302.907 192.8C302.04 192.267 300.94 192 299.607 192C298.274 192 297.04 192.367 295.907 193.1C294.774 193.833 293.874 194.933 293.207 196.4C292.607 197.867 292.307 199.7 292.307 201.9L288.707 195C288.707 191.333 289.44 188.067 290.907 185.2C292.374 182.333 294.307 180.067 296.707 178.4C299.174 176.667 301.74 175.8 304.407 175.8C306.074 175.8 307.674 176.2 309.207 177C310.74 177.733 311.874 178.667 312.607 179.8L305.407 194.7Z" fill="white"/>
<path d="M131.955 189.5L126.81 192.587C126.833 192.626 126.857 192.665 126.882 192.704L131.955 189.5ZM123.755 188.3L121.071 182.933C121.024 182.957 120.978 182.981 120.931 183.006L123.755 188.3ZM121.355 190.8L116.052 187.993C116.008 188.076 115.966 188.16 115.926 188.245L121.355 190.8ZM120.555 223V229C123.868 229 126.555 226.314 126.555 223H120.555ZM103.255 223H97.2546C97.2546 226.314 99.9409 229 103.255 229V223ZM103.255 177V171C99.9409 171 97.2546 173.686 97.2546 177H103.255ZM120.555 177H126.555C126.555 173.686 123.868 171 120.555 171V177ZM120.555 183.8H114.555C114.555 186.558 116.435 188.961 119.112 189.624C121.789 190.287 124.574 189.04 125.861 186.6L120.555 183.8ZM125.855 178.1L129.008 183.205C129.021 183.196 129.034 183.188 129.048 183.18L125.855 178.1ZM147.455 180.5L142.829 184.321C142.843 184.338 142.857 184.354 142.87 184.371L147.455 180.5ZM151.255 223V229C154.568 229 157.255 226.314 157.255 223H151.255ZM133.155 223H127.155C127.155 226.314 129.841 229 133.155 229V223ZM139.155 195C139.155 192.086 138.696 188.937 137.028 186.296L126.882 192.704C126.828 192.618 126.905 192.705 126.993 193.104C127.08 193.503 127.155 194.117 127.155 195H139.155ZM137.1 186.413C134.765 182.522 130.675 181.5 127.355 181.5V193.5C127.941 193.5 128.018 193.592 127.812 193.502C127.695 193.451 127.513 193.352 127.312 193.18C127.109 193.006 126.937 192.8 126.81 192.587L137.1 186.413ZM127.355 181.5C125.201 181.5 123.065 181.936 121.071 182.933L126.438 193.666C126.577 193.597 126.842 193.5 127.355 193.5V181.5ZM120.931 183.006C118.74 184.174 117.136 185.945 116.052 187.993L126.657 193.607C126.692 193.542 126.717 193.504 126.73 193.486C126.743 193.468 126.745 193.468 126.733 193.48C126.721 193.492 126.7 193.512 126.67 193.535C126.641 193.557 126.609 193.578 126.578 193.594L120.931 183.006ZM115.926 188.245C114.914 190.396 114.555 192.728 114.555 195H126.555C126.555 193.938 126.729 193.47 126.784 193.355L115.926 188.245ZM114.555 195V223H126.555V195H114.555ZM120.555 217H103.255V229H120.555V217ZM109.255 223V177H97.2546V223H109.255ZM103.255 183H120.555V171H103.255V183ZM114.555 177V183.8H126.555V177H114.555ZM125.861 186.6C126.638 185.128 127.669 184.031 129.008 183.205L122.702 172.995C119.507 174.968 117.005 177.671 115.248 180.999L125.861 186.6ZM129.048 183.18C130.189 182.462 131.936 181.9 134.655 181.9V169.9C130.306 169.9 126.187 170.804 122.662 173.02L129.048 183.18ZM134.655 181.9C139.79 181.9 141.916 183.217 142.829 184.321L152.08 176.679C147.926 171.65 141.519 169.9 134.655 169.9V181.9ZM142.87 184.371C144.187 185.931 145.255 188.599 145.255 193.2H157.255C157.255 186.868 155.788 181.069 152.039 176.629L142.87 184.371ZM145.255 193.2V223H157.255V193.2H145.255ZM151.255 217H133.155V229H151.255V217ZM139.155 223V195H127.155V223H139.155ZM194.139 145V139C190.825 139 188.139 141.686 188.139 145H194.139ZM211.439 145H217.439C217.439 141.686 214.753 139 211.439 139V145ZM211.439 223V229C214.753 229 217.439 226.314 217.439 223H211.439ZM194.139 223H188.139C188.139 226.314 190.825 229 194.139 229V223ZM159.939 186.8L154.803 183.699C154.788 183.723 154.774 183.747 154.76 183.771L159.939 186.8ZM168.039 178.8L170.935 184.055C170.947 184.048 170.959 184.042 170.971 184.035L168.039 178.8ZM188.739 178.9L185.489 183.943L185.489 183.943L188.739 178.9ZM195.839 187.2L190.433 189.803C190.452 189.843 190.472 189.883 190.493 189.923L195.839 187.2ZM195.839 212.8L190.472 210.117C190.459 210.143 190.446 210.17 190.433 210.197L195.839 212.8ZM188.739 221.1L191.989 226.143L191.989 226.143L188.739 221.1ZM168.039 221.3L165.062 226.509C165.104 226.533 165.146 226.556 165.188 226.579L168.039 221.3ZM159.939 213.2L154.735 216.187C154.757 216.225 154.78 216.263 154.803 216.301L159.939 213.2ZM176.339 205.4L181.615 202.542L181.615 202.542L176.339 205.4ZM179.839 209.1L182.891 203.934L182.891 203.934L179.839 209.1ZM189.139 209.2L192.012 214.467C192.072 214.434 192.132 214.4 192.191 214.365L189.139 209.2ZM192.739 205.6L187.614 202.48L192.739 205.6ZM189.139 190.9L186.087 196.065C186.146 196.1 186.206 196.134 186.266 196.167L189.139 190.9ZM179.839 190.9L182.891 196.065L182.891 196.065L179.839 190.9ZM176.339 194.6L181.562 197.552C181.58 197.521 181.598 197.489 181.615 197.458L176.339 194.6ZM194.139 151H211.439V139H194.139V151ZM205.439 145V223H217.439V145H205.439ZM211.439 217H194.139V229H211.439V217ZM200.139 223V145H188.139V223H200.139ZM162.839 200C162.839 195.499 163.722 192.216 165.118 189.829L154.76 183.771C152.023 188.451 150.839 193.968 150.839 200H162.839ZM165.075 189.901C166.724 187.171 168.687 185.293 170.935 184.055L165.143 173.545C160.858 175.906 157.421 179.362 154.803 183.699L165.075 189.901ZM170.971 184.035C173.465 182.638 175.929 182 178.439 182V170C173.749 170 169.28 171.228 165.107 173.565L170.971 184.035ZM178.439 182C181.253 182 183.539 182.687 185.489 183.943L191.989 173.856C187.939 171.246 183.358 170 178.439 170V182ZM185.489 183.943C187.451 185.208 189.121 187.077 190.433 189.803L201.245 184.597C199.091 180.123 196.027 176.459 191.989 173.856L185.489 183.943ZM190.493 189.923C191.766 192.422 192.539 195.706 192.539 200H204.539C204.539 194.294 203.512 189.044 201.185 184.476L190.493 189.923ZM192.539 200C192.539 204.208 191.772 207.517 190.472 210.117L201.206 215.483C203.506 210.883 204.539 205.658 204.539 200H192.539ZM190.433 210.197C189.121 212.923 187.451 214.792 185.489 216.056L191.989 226.143C196.027 223.541 199.091 219.877 201.245 215.403L190.433 210.197ZM185.489 216.056C183.539 217.313 181.253 218 178.439 218V230C183.358 230 187.939 228.753 191.989 226.143L185.489 216.056ZM178.439 218C175.887 218 173.395 217.373 170.89 216.02L165.188 226.579C169.35 228.827 173.791 230 178.439 230V218ZM171.016 216.09C168.721 214.779 166.733 212.844 165.075 210.099L154.803 216.301C157.412 220.623 160.824 224.087 165.062 226.509L171.016 216.09ZM165.143 210.213C163.714 207.724 162.839 204.413 162.839 200H150.839C150.839 205.987 152.031 211.475 154.735 216.187L165.143 210.213ZM169.039 200C169.039 202.897 169.675 205.695 171.063 208.258L181.615 202.542C181.269 201.904 181.039 201.103 181.039 200H169.039ZM171.063 208.258C172.411 210.746 174.319 212.807 176.787 214.265L182.891 203.934C182.426 203.659 182 203.253 181.615 202.542L171.063 208.258ZM176.787 214.265C179.195 215.688 181.852 216.4 184.639 216.4V204.4C183.96 204.4 183.417 204.245 182.891 203.934L176.787 214.265ZM184.639 216.4C187.265 216.4 189.745 215.704 192.012 214.467L186.266 203.933C185.6 204.296 185.08 204.4 184.639 204.4V216.4ZM192.191 214.365C194.552 212.97 196.447 211.048 197.864 208.72L187.614 202.48C187.165 203.218 186.659 203.696 186.087 204.034L192.191 214.365ZM197.864 208.72C199.486 206.055 200.139 203.052 200.139 200H188.139C188.139 201.347 187.858 202.078 187.614 202.48L197.864 208.72ZM200.139 200C200.139 196.947 199.486 193.945 197.864 191.28L187.614 197.52C187.858 197.921 188.139 198.652 188.139 200H200.139ZM197.864 191.28C196.424 188.915 194.474 186.975 192.012 185.633L186.266 196.167C186.737 196.424 187.187 196.818 187.614 197.52L197.864 191.28ZM192.191 185.734C189.906 184.384 187.362 183.6 184.639 183.6V195.6C184.982 195.6 185.439 195.683 186.087 196.065L192.191 185.734ZM184.639 183.6C181.852 183.6 179.195 184.311 176.787 185.734L182.891 196.065C183.417 195.755 183.96 195.6 184.639 195.6V183.6ZM176.787 185.734C174.319 187.192 172.411 189.253 171.063 191.742L181.615 197.458C182 196.746 182.426 196.341 182.891 196.065L176.787 185.734ZM171.116 191.648C169.658 194.227 169.039 197.079 169.039 200H181.039C181.039 198.787 181.287 198.04 181.562 197.552L171.116 191.648ZM229.625 221.1L226.977 226.484C227.012 226.501 227.047 226.518 227.083 226.535L229.625 221.1ZM220.225 212.8L215.105 215.929C215.114 215.943 215.123 215.957 215.132 215.971L220.225 212.8ZM220.125 187.2L225.261 190.301C225.27 190.287 225.278 190.273 225.287 190.259L220.125 187.2ZM229.325 178.9L231.936 184.302L231.936 184.302L229.325 178.9ZM257.825 178.7L260.393 173.277L260.393 173.277L257.825 178.7ZM266.525 186.6L261.328 189.598C261.336 189.613 261.345 189.627 261.353 189.642L266.525 186.6ZM269.425 201.6L263.446 201.102C263.432 201.267 263.425 201.434 263.425 201.6H269.425ZM269.325 203.6V209.6C272.382 209.6 274.951 207.301 275.288 204.262L269.325 203.6ZM226.425 203.6H220.425C220.425 206.914 223.111 209.6 226.425 209.6V203.6ZM226.425 194.7V188.7C223.111 188.7 220.425 191.386 220.425 194.7H226.425ZM253.525 194.7L258.2 198.46C259.648 196.661 259.934 194.191 258.936 192.108C257.939 190.025 255.834 188.7 253.525 188.7V194.7ZM249.825 199.3L244.737 196.12C243.054 198.813 243.76 202.35 246.349 204.19C248.937 206.03 252.51 205.535 254.5 203.06L249.825 199.3ZM250.725 197.5L245.154 195.272L245.154 195.272L250.725 197.5ZM250.125 191.1L244.653 193.562C244.704 193.674 244.758 193.785 244.815 193.894L250.125 191.1ZM247.425 188.1L244.165 193.137C244.278 193.21 244.394 193.28 244.511 193.345L247.425 188.1ZM238.325 188.4L234.884 183.484L234.884 183.484L238.325 188.4ZM235.325 192.7L240.975 194.718C240.983 194.697 240.99 194.677 240.997 194.656L235.325 192.7ZM234.325 199.9L240.323 200.054C240.324 200.002 240.325 199.951 240.325 199.9H234.325ZM235.325 206.5L229.768 208.764L229.768 208.764L235.325 206.5ZM238.525 210.7L235.038 215.582C235.09 215.62 235.143 215.656 235.197 215.692L238.525 210.7ZM250.125 210.8L252.808 216.166C252.835 216.153 252.861 216.14 252.887 216.126L250.125 210.8ZM254.325 206.8L255.494 200.915C252.973 200.414 250.412 201.575 249.128 203.802L254.325 206.8ZM269.925 209.9L275.246 212.673C276.119 210.998 276.152 209.009 275.335 207.306C274.518 205.602 272.947 204.383 271.094 204.015L269.925 209.9ZM259.825 220.5L256.946 215.236C256.934 215.242 256.923 215.248 256.911 215.255L259.825 220.5ZM244.325 218C239.33 218 235.336 217.147 232.167 215.665L227.083 226.535C232.18 228.919 237.987 230 244.325 230V218ZM232.273 215.716C229.119 214.165 226.874 212.126 225.318 209.629L215.132 215.971C217.976 220.54 221.997 224.035 226.977 226.484L232.273 215.716ZM225.345 209.671C223.812 207.163 222.925 204.019 222.925 200H210.925C210.925 205.848 212.238 211.237 215.105 215.929L225.345 209.671ZM222.925 200C222.925 195.861 223.802 192.719 225.261 190.301L214.989 184.099C212.181 188.748 210.925 194.138 210.925 200H222.925ZM225.287 190.259C226.781 187.737 228.929 185.755 231.936 184.302L226.714 173.498C221.721 175.911 217.736 179.462 214.963 184.141L225.287 190.259ZM231.936 184.302C234.938 182.851 238.8 182 243.725 182V170C237.45 170 231.712 171.082 226.714 173.498L231.936 184.302ZM243.725 182C248.717 182 252.479 182.807 255.256 184.122L260.393 173.277C255.57 170.993 249.932 170 243.725 170V182ZM255.256 184.122C258.013 185.428 259.969 187.243 261.328 189.598L271.722 183.602C269.081 179.023 265.237 175.572 260.393 173.277L255.256 184.122ZM261.353 189.642C262.684 191.904 263.525 194.988 263.525 199.2H275.525C275.525 193.412 274.366 188.096 271.697 183.558L261.353 189.642ZM263.525 199.2C263.525 199.833 263.499 200.467 263.446 201.102L275.404 202.098C275.485 201.133 275.525 200.167 275.525 199.2H263.525ZM263.425 201.6C263.425 202.157 263.399 202.598 263.362 202.937L275.288 204.262C275.384 203.402 275.425 202.509 275.425 201.6H263.425ZM269.325 197.6H226.425V209.6H269.325V197.6ZM232.425 203.6V194.7H220.425V203.6H232.425ZM226.425 200.7H253.525V188.7H226.425V200.7ZM248.85 190.939L245.15 195.539L254.5 203.06L258.2 198.46L248.85 190.939ZM254.913 202.48C255.459 201.605 255.915 200.68 256.296 199.728L245.154 195.272C245.002 195.653 244.857 195.928 244.737 196.12L254.913 202.48ZM256.296 199.728C256.709 198.694 257.125 197.327 257.125 195.8H245.125C245.125 195.473 245.17 195.262 245.184 195.201C245.2 195.135 245.201 195.154 245.154 195.272L256.296 199.728ZM257.125 195.8C257.125 193.246 256.671 190.656 255.434 188.305L244.815 193.894C244.912 194.077 245.125 194.621 245.125 195.8H257.125ZM255.596 188.638C254.503 186.207 252.745 184.192 250.339 182.855L244.511 193.345C244.522 193.351 244.529 193.355 244.533 193.358C244.537 193.36 244.538 193.362 244.539 193.362C244.539 193.362 244.539 193.362 244.539 193.362C244.538 193.362 244.539 193.362 244.54 193.364C244.54 193.364 244.586 193.413 244.653 193.562L255.596 188.638ZM250.684 183.062C248.412 181.592 245.864 181 243.325 181V193C243.667 193 243.88 193.039 243.995 193.07C244.104 193.099 244.149 193.127 244.165 193.137L250.684 183.062ZM243.325 181C240.379 181 237.437 181.698 234.884 183.484L241.766 193.315C241.88 193.236 242.271 193 243.325 193V181ZM234.884 183.484C232.274 185.312 230.625 187.923 229.653 190.744L240.997 194.656C241.358 193.61 241.71 193.354 241.766 193.315L234.884 183.484ZM229.674 190.682C228.694 193.428 228.325 196.577 228.325 199.9H240.325C240.325 197.356 240.623 195.706 240.975 194.718L229.674 190.682ZM228.327 199.746C228.246 202.909 228.636 205.985 229.768 208.764L240.882 204.236C240.547 203.415 240.271 202.091 240.323 200.054L228.327 199.746ZM229.768 208.764C230.873 211.474 232.598 213.84 235.038 215.582L242.012 205.817C241.652 205.56 241.244 205.125 240.882 204.236L229.768 208.764ZM235.197 215.692C237.787 217.419 240.746 218.1 243.725 218.1V206.1C242.57 206.1 242.063 205.847 241.853 205.708L235.197 215.692ZM243.725 218.1C246.914 218.1 250.026 217.557 252.808 216.166L247.442 205.433C246.757 205.776 245.602 206.1 243.725 206.1V218.1ZM252.887 216.126C255.69 214.673 257.941 212.538 259.522 209.798L249.128 203.802C248.709 204.528 248.16 205.06 247.363 205.473L252.887 216.126ZM253.156 212.685L268.756 215.785L271.094 204.015L255.494 200.915L253.156 212.685ZM264.604 207.127C262.631 210.914 260.069 213.528 256.946 215.236L262.704 225.764C268.115 222.805 272.286 218.353 275.246 212.673L264.604 207.127ZM256.911 215.255C253.816 216.974 249.714 218 244.325 218V230C251.202 230 257.434 228.692 262.739 225.745L256.911 215.255ZM292.307 177H298.307C298.307 173.686 295.621 171 292.307 171V177ZM292.307 223V229C295.621 229 298.307 226.314 298.307 223H292.307ZM275.407 223H269.407C269.407 226.314 272.093 229 275.407 229V223ZM275.407 177V171C272.093 171 269.407 173.686 269.407 177H275.407ZM305.407 194.7L300.984 198.754C302.328 200.22 304.311 200.925 306.279 200.636C308.247 200.347 309.944 199.101 310.809 197.31L305.407 194.7ZM302.907 192.8L299.762 197.91C299.912 198.002 300.066 198.088 300.224 198.166L302.907 192.8ZM295.907 193.1L292.647 188.062L292.647 188.062L295.907 193.1ZM293.207 196.4L287.745 193.917C287.713 193.987 287.683 194.057 287.654 194.128L293.207 196.4ZM292.307 201.9L286.987 204.675C288.266 207.125 291.052 208.385 293.736 207.727C296.42 207.069 298.307 204.663 298.307 201.9H292.307ZM288.707 195H282.707C282.707 195.966 282.94 196.918 283.387 197.775L288.707 195ZM296.707 178.4L300.129 183.328C300.138 183.322 300.148 183.315 300.157 183.309L296.707 178.4ZM309.207 177L306.432 182.319C306.493 182.352 306.555 182.383 306.618 182.413L309.207 177ZM312.607 179.8L318.009 182.41C318.921 180.524 318.782 178.299 317.644 176.54L312.607 179.8ZM286.307 177V223H298.307V177H286.307ZM292.307 217H275.407V229H292.307V217ZM281.407 223V177H269.407V223H281.407ZM275.407 183H292.307V171H275.407V183ZM309.83 190.646C308.622 189.328 307.205 188.241 305.59 187.433L300.224 198.166C300.476 198.293 300.726 198.472 300.984 198.754L309.83 190.646ZM306.052 187.69C303.988 186.42 301.714 186 299.607 186V198C299.879 198 300.005 198.028 300.018 198.031C300.025 198.033 299.921 198.008 299.762 197.91L306.052 187.69ZM299.607 186C297.102 186 294.739 186.709 292.647 188.062L299.166 198.137C299.342 198.024 299.445 198 299.607 198V186ZM292.647 188.062C290.378 189.531 288.793 191.61 287.745 193.917L298.669 198.883C298.816 198.56 298.945 198.373 299.026 198.274C299.102 198.181 299.15 198.148 299.166 198.137L292.647 188.062ZM287.654 194.128C286.668 196.537 286.307 199.203 286.307 201.9H298.307C298.307 200.197 298.546 199.196 298.76 198.672L287.654 194.128ZM297.626 199.124L294.026 192.224L283.387 197.775L286.987 204.675L297.626 199.124ZM294.707 195C294.707 192.151 295.271 189.843 296.248 187.933L285.565 182.467C283.609 186.29 282.707 190.516 282.707 195H294.707ZM296.248 187.933C297.312 185.853 298.62 184.376 300.129 183.328L293.285 173.472C289.994 175.757 287.435 178.813 285.565 182.467L296.248 187.933ZM300.157 183.309C301.75 182.189 303.133 181.8 304.407 181.8V169.8C300.348 169.8 296.597 171.144 293.257 173.491L300.157 183.309ZM304.407 181.8C305.07 181.8 305.722 181.949 306.432 182.319L311.982 171.68C309.626 170.451 307.077 169.8 304.407 169.8V181.8ZM306.618 182.413C307.013 182.602 307.255 182.768 307.393 182.881C307.525 182.99 307.566 183.053 307.57 183.059L317.644 176.54C316.171 174.264 314.072 172.676 311.796 171.587L306.618 182.413ZM307.205 177.189L300.005 192.089L310.809 197.31L318.009 182.41L307.205 177.189Z" fill="#006A04" mask="url(#path-12-outside-1_34_115)"/>
<mask id="path-14-outside-2_34_115" maskUnits="userSpaceOnUse" x="104.255" y="92" width="196" height="77" fill="black">
<rect fill="white" x="104.255" y="92" width="196" height="77"/>
<path d="M137.755 161C132.088 161 127.188 160.033 123.055 158.1C118.988 156.1 115.855 153.333 113.655 149.8C111.455 146.2 110.355 141.933 110.355 137C110.355 132 111.421 127.733 113.555 124.2C115.688 120.6 118.755 117.833 122.755 115.9C126.755 113.967 131.555 113 137.155 113C142.755 113 147.455 113.9 151.255 115.7C155.055 117.5 157.955 120.133 159.955 123.6C161.955 127 162.955 131.2 162.955 136.2C162.955 137 162.921 137.8 162.855 138.6C162.855 139.333 162.821 140 162.755 140.6H119.855V131.7H146.955L143.255 136.3C143.588 135.767 143.888 135.167 144.155 134.5C144.421 133.833 144.555 133.267 144.555 132.8C144.555 130.933 144.221 129.367 143.555 128.1C142.955 126.767 142.055 125.767 140.855 125.1C139.721 124.367 138.355 124 136.755 124C134.755 124 133.088 124.467 131.755 125.4C130.421 126.333 129.421 127.767 128.755 129.7C128.088 131.567 127.755 133.967 127.755 136.9C127.688 139.5 128.021 141.7 128.755 143.5C129.488 145.3 130.555 146.7 131.955 147.7C133.355 148.633 135.088 149.1 137.155 149.1C139.688 149.1 141.821 148.667 143.555 147.8C145.355 146.867 146.755 145.533 147.755 143.8L163.355 146.9C160.888 151.633 157.521 155.167 153.255 157.5C149.055 159.833 143.888 161 137.755 161ZM182.937 145.6C182.937 146.6 183.17 147.467 183.637 148.2C184.17 148.867 184.87 149.4 185.737 149.8C186.603 150.133 187.537 150.3 188.537 150.3C190.003 150.3 191.403 150 192.737 149.4C194.07 148.733 195.137 147.733 195.937 146.4C196.803 145 197.237 143.267 197.237 141.2L198.837 147.2C198.837 150.133 198.07 152.633 196.537 154.7C195.07 156.767 193.037 158.333 190.437 159.4C187.903 160.467 185.103 161 182.037 161C179.103 161 176.37 160.467 173.837 159.4C171.37 158.267 169.37 156.633 167.837 154.5C166.303 152.3 165.537 149.633 165.537 146.5C165.537 142.1 167.07 138.633 170.137 136.1C173.27 133.567 177.77 132.3 183.637 132.3C186.17 132.3 188.537 132.533 190.737 133C193.003 133.467 194.97 134.1 196.637 134.9C198.37 135.633 199.67 136.467 200.537 137.4V144.7C199.203 143.567 197.537 142.7 195.537 142.1C193.537 141.5 191.437 141.2 189.237 141.2C187.703 141.2 186.47 141.367 185.537 141.7C184.603 142.033 183.937 142.533 183.537 143.2C183.137 143.8 182.937 144.6 182.937 145.6ZM174.537 129.1L169.037 117.8C171.97 116.533 175.337 115.367 179.137 114.3C183.003 113.167 187.103 112.6 191.437 112.6C195.637 112.6 199.403 113.2 202.737 114.4C206.137 115.533 208.803 117.233 210.737 119.5C212.737 121.767 213.737 124.533 213.737 127.8V160H197.237V131.9C197.237 130.9 197.07 130 196.737 129.2C196.47 128.4 196.003 127.733 195.337 127.2C194.67 126.6 193.803 126.167 192.737 125.9C191.67 125.567 190.437 125.4 189.037 125.4C187.103 125.4 185.103 125.633 183.037 126.1C181.037 126.567 179.27 127.1 177.737 127.7C176.203 128.3 175.137 128.767 174.537 129.1ZM224.003 142.5C226.803 144.633 229.236 146.233 231.303 147.3C233.37 148.367 235.136 149.067 236.603 149.4C238.07 149.733 239.203 149.9 240.003 149.9C241.27 149.9 242.203 149.633 242.803 149.1C243.403 148.567 243.703 147.833 243.703 146.9C243.703 146.1 243.436 145.433 242.903 144.9C242.436 144.3 241.503 143.7 240.103 143.1C238.77 142.5 236.77 141.767 234.103 140.9C231.903 140.167 229.803 139.267 227.803 138.2C225.803 137.067 224.17 135.567 222.903 133.7C221.703 131.767 221.103 129.3 221.103 126.3C221.103 123.433 221.87 121.033 223.403 119.1C224.936 117.1 227.036 115.6 229.703 114.6C232.37 113.533 235.47 113 239.003 113C241.736 113 244.27 113.3 246.603 113.9C249.003 114.433 251.27 115.167 253.403 116.1C255.536 116.967 257.636 118 259.703 119.2L254.603 130.7C252.47 128.833 250.07 127.333 247.403 126.2C244.803 125 242.503 124.4 240.503 124.4C239.236 124.4 238.303 124.633 237.703 125.1C237.17 125.567 236.903 126.133 236.903 126.8C236.903 127.733 237.303 128.5 238.103 129.1C238.903 129.633 240.103 130.167 241.703 130.7C243.303 131.233 245.336 131.967 247.803 132.9C250.136 133.767 252.27 134.767 254.203 135.9C256.203 136.967 257.803 138.367 259.003 140.1C260.27 141.833 260.903 144.133 260.903 147C260.903 152.2 259.336 156.033 256.203 158.5C253.136 160.967 248.77 162.2 243.103 162.2C239.703 162.2 236.503 161.867 233.503 161.2C230.57 160.533 227.803 159.6 225.203 158.4C222.603 157.2 220.103 155.833 217.703 154.3L224.003 142.5ZM260.571 114H293.671V128H260.571V114ZM268.871 98H285.371V160H268.871V98Z"/>
</mask>
<path d="M137.755 161C132.088 161 127.188 160.033 123.055 158.1C118.988 156.1 115.855 153.333 113.655 149.8C111.455 146.2 110.355 141.933 110.355 137C110.355 132 111.421 127.733 113.555 124.2C115.688 120.6 118.755 117.833 122.755 115.9C126.755 113.967 131.555 113 137.155 113C142.755 113 147.455 113.9 151.255 115.7C155.055 117.5 157.955 120.133 159.955 123.6C161.955 127 162.955 131.2 162.955 136.2C162.955 137 162.921 137.8 162.855 138.6C162.855 139.333 162.821 140 162.755 140.6H119.855V131.7H146.955L143.255 136.3C143.588 135.767 143.888 135.167 144.155 134.5C144.421 133.833 144.555 133.267 144.555 132.8C144.555 130.933 144.221 129.367 143.555 128.1C142.955 126.767 142.055 125.767 140.855 125.1C139.721 124.367 138.355 124 136.755 124C134.755 124 133.088 124.467 131.755 125.4C130.421 126.333 129.421 127.767 128.755 129.7C128.088 131.567 127.755 133.967 127.755 136.9C127.688 139.5 128.021 141.7 128.755 143.5C129.488 145.3 130.555 146.7 131.955 147.7C133.355 148.633 135.088 149.1 137.155 149.1C139.688 149.1 141.821 148.667 143.555 147.8C145.355 146.867 146.755 145.533 147.755 143.8L163.355 146.9C160.888 151.633 157.521 155.167 153.255 157.5C149.055 159.833 143.888 161 137.755 161ZM182.937 145.6C182.937 146.6 183.17 147.467 183.637 148.2C184.17 148.867 184.87 149.4 185.737 149.8C186.603 150.133 187.537 150.3 188.537 150.3C190.003 150.3 191.403 150 192.737 149.4C194.07 148.733 195.137 147.733 195.937 146.4C196.803 145 197.237 143.267 197.237 141.2L198.837 147.2C198.837 150.133 198.07 152.633 196.537 154.7C195.07 156.767 193.037 158.333 190.437 159.4C187.903 160.467 185.103 161 182.037 161C179.103 161 176.37 160.467 173.837 159.4C171.37 158.267 169.37 156.633 167.837 154.5C166.303 152.3 165.537 149.633 165.537 146.5C165.537 142.1 167.07 138.633 170.137 136.1C173.27 133.567 177.77 132.3 183.637 132.3C186.17 132.3 188.537 132.533 190.737 133C193.003 133.467 194.97 134.1 196.637 134.9C198.37 135.633 199.67 136.467 200.537 137.4V144.7C199.203 143.567 197.537 142.7 195.537 142.1C193.537 141.5 191.437 141.2 189.237 141.2C187.703 141.2 186.47 141.367 185.537 141.7C184.603 142.033 183.937 142.533 183.537 143.2C183.137 143.8 182.937 144.6 182.937 145.6ZM174.537 129.1L169.037 117.8C171.97 116.533 175.337 115.367 179.137 114.3C183.003 113.167 187.103 112.6 191.437 112.6C195.637 112.6 199.403 113.2 202.737 114.4C206.137 115.533 208.803 117.233 210.737 119.5C212.737 121.767 213.737 124.533 213.737 127.8V160H197.237V131.9C197.237 130.9 197.07 130 196.737 129.2C196.47 128.4 196.003 127.733 195.337 127.2C194.67 126.6 193.803 126.167 192.737 125.9C191.67 125.567 190.437 125.4 189.037 125.4C187.103 125.4 185.103 125.633 183.037 126.1C181.037 126.567 179.27 127.1 177.737 127.7C176.203 128.3 175.137 128.767 174.537 129.1ZM224.003 142.5C226.803 144.633 229.236 146.233 231.303 147.3C233.37 148.367 235.136 149.067 236.603 149.4C238.07 149.733 239.203 149.9 240.003 149.9C241.27 149.9 242.203 149.633 242.803 149.1C243.403 148.567 243.703 147.833 243.703 146.9C243.703 146.1 243.436 145.433 242.903 144.9C242.436 144.3 241.503 143.7 240.103 143.1C238.77 142.5 236.77 141.767 234.103 140.9C231.903 140.167 229.803 139.267 227.803 138.2C225.803 137.067 224.17 135.567 222.903 133.7C221.703 131.767 221.103 129.3 221.103 126.3C221.103 123.433 221.87 121.033 223.403 119.1C224.936 117.1 227.036 115.6 229.703 114.6C232.37 113.533 235.47 113 239.003 113C241.736 113 244.27 113.3 246.603 113.9C249.003 114.433 251.27 115.167 253.403 116.1C255.536 116.967 257.636 118 259.703 119.2L254.603 130.7C252.47 128.833 250.07 127.333 247.403 126.2C244.803 125 242.503 124.4 240.503 124.4C239.236 124.4 238.303 124.633 237.703 125.1C237.17 125.567 236.903 126.133 236.903 126.8C236.903 127.733 237.303 128.5 238.103 129.1C238.903 129.633 240.103 130.167 241.703 130.7C243.303 131.233 245.336 131.967 247.803 132.9C250.136 133.767 252.27 134.767 254.203 135.9C256.203 136.967 257.803 138.367 259.003 140.1C260.27 141.833 260.903 144.133 260.903 147C260.903 152.2 259.336 156.033 256.203 158.5C253.136 160.967 248.77 162.2 243.103 162.2C239.703 162.2 236.503 161.867 233.503 161.2C230.57 160.533 227.803 159.6 225.203 158.4C222.603 157.2 220.103 155.833 217.703 154.3L224.003 142.5ZM260.571 114H293.671V128H260.571V114ZM268.871 98H285.371V160H268.871V98Z" fill="white"/>
<path d="M123.055 158.1L120.407 163.484C120.442 163.501 120.477 163.518 120.513 163.535L123.055 158.1ZM113.655 149.8L108.535 152.929C108.544 152.943 108.552 152.957 108.561 152.971L113.655 149.8ZM113.555 124.2L118.691 127.301C118.7 127.287 118.708 127.273 118.716 127.259L113.555 124.2ZM122.755 115.9L125.366 121.302L125.366 121.302L122.755 115.9ZM151.255 115.7L153.823 110.278L153.823 110.278L151.255 115.7ZM159.955 123.6L154.758 126.598C154.766 126.613 154.774 126.628 154.783 126.642L159.955 123.6ZM162.855 138.6L156.875 138.102C156.862 138.267 156.855 138.434 156.855 138.6H162.855ZM162.755 140.6V146.6C165.812 146.6 168.38 144.301 168.718 141.263L162.755 140.6ZM119.855 140.6H113.855C113.855 143.914 116.541 146.6 119.855 146.6V140.6ZM119.855 131.7V125.7C116.541 125.7 113.855 128.386 113.855 131.7H119.855ZM146.955 131.7L151.63 135.461C153.077 133.661 153.364 131.191 152.366 129.108C151.368 127.025 149.264 125.7 146.955 125.7V131.7ZM143.255 136.3L138.167 133.12C136.484 135.813 137.19 139.35 139.778 141.19C142.366 143.03 145.94 142.535 147.93 140.061L143.255 136.3ZM144.155 134.5L138.584 132.272L138.584 132.272L144.155 134.5ZM143.555 128.1L138.083 130.562C138.134 130.675 138.188 130.785 138.245 130.894L143.555 128.1ZM140.855 125.1L137.595 130.137C137.708 130.21 137.823 130.28 137.941 130.345L140.855 125.1ZM131.755 125.4L128.314 120.485L128.314 120.485L131.755 125.4ZM128.755 129.7L134.405 131.718C134.412 131.697 134.42 131.677 134.427 131.656L128.755 129.7ZM127.755 136.9L133.753 137.054C133.754 137.003 133.755 136.951 133.755 136.9H127.755ZM128.755 143.5L123.198 145.764L123.198 145.764L128.755 143.5ZM131.955 147.7L128.467 152.582C128.52 152.62 128.573 152.657 128.626 152.692L131.955 147.7ZM143.555 147.8L146.238 153.167C146.264 153.153 146.29 153.14 146.317 153.127L143.555 147.8ZM147.755 143.8L148.924 137.915C146.403 137.414 143.842 138.575 142.558 140.802L147.755 143.8ZM163.355 146.9L168.675 149.673C169.548 147.998 169.582 146.009 168.765 144.306C167.948 142.602 166.377 141.383 164.524 141.015L163.355 146.9ZM153.255 157.5L150.376 152.236C150.364 152.242 150.352 152.249 150.341 152.255L153.255 157.5ZM137.755 155C132.759 155 128.766 154.148 125.597 152.665L120.513 163.535C125.61 165.919 131.417 167 137.755 167V155ZM125.703 152.716C122.549 151.165 120.303 149.126 118.748 146.629L108.561 152.971C111.406 157.54 115.427 161.035 120.407 163.484L125.703 152.716ZM118.774 146.671C117.241 144.163 116.355 141.019 116.355 137H104.355C104.355 142.848 105.668 148.237 108.535 152.929L118.774 146.671ZM116.355 137C116.355 132.862 117.231 129.719 118.691 127.301L108.418 121.099C105.611 125.748 104.355 131.138 104.355 137H116.355ZM118.716 127.259C120.21 124.738 122.359 122.755 125.366 121.302L120.144 110.498C115.15 112.911 111.165 116.462 108.393 121.141L118.716 127.259ZM125.366 121.302C128.368 119.851 132.23 119 137.155 119V107C130.879 107 125.141 108.082 120.144 110.498L125.366 121.302ZM137.155 119C142.147 119 145.909 119.807 148.686 121.122L153.823 110.278C149 107.993 143.362 107 137.155 107V119ZM148.686 121.122C151.443 122.428 153.399 124.243 154.758 126.598L165.152 120.602C162.51 116.023 158.666 112.572 153.823 110.278L148.686 121.122ZM154.783 126.642C156.114 128.904 156.955 131.988 156.955 136.2H168.955C168.955 130.412 167.796 125.096 165.126 120.558L154.783 126.642ZM156.955 136.2C156.955 136.833 156.928 137.467 156.875 138.102L168.834 139.098C168.914 138.133 168.955 137.167 168.955 136.2H156.955ZM156.855 138.6C156.855 139.157 156.829 139.598 156.791 139.937L168.718 141.263C168.814 140.402 168.855 139.51 168.855 138.6H156.855ZM162.755 134.6H119.855V146.6H162.755V134.6ZM125.855 140.6V131.7H113.855V140.6H125.855ZM119.855 137.7H146.955V125.7H119.855V137.7ZM142.279 127.939L138.579 132.539L147.93 140.061L151.63 135.461L142.279 127.939ZM148.343 139.48C148.889 138.606 149.345 137.68 149.726 136.728L138.584 132.272C138.431 132.653 138.287 132.928 138.167 133.12L148.343 139.48ZM149.725 136.728C150.139 135.695 150.555 134.327 150.555 132.8H138.555C138.555 132.473 138.6 132.262 138.614 132.201C138.63 132.135 138.631 132.155 138.584 132.272L149.725 136.728ZM150.555 132.8C150.555 130.246 150.101 127.656 148.864 125.306L138.245 130.894C138.341 131.077 138.555 131.621 138.555 132.8H150.555ZM149.026 125.638C147.932 123.207 146.174 121.192 143.768 119.855L137.941 130.345C137.951 130.351 137.958 130.355 137.962 130.358C137.966 130.361 137.968 130.362 137.968 130.362C137.969 130.362 137.969 130.362 137.968 130.362C137.968 130.362 137.968 130.362 137.97 130.364C137.97 130.364 138.016 130.413 138.083 130.562L149.026 125.638ZM144.114 120.063C141.842 118.592 139.294 118 136.755 118V130C137.097 130 137.31 130.039 137.425 130.07C137.533 130.099 137.579 130.127 137.595 130.137L144.114 120.063ZM136.755 118C133.809 118 130.867 118.698 128.314 120.485L135.195 130.315C135.309 130.236 135.7 130 136.755 130V118ZM128.314 120.485C125.703 122.312 124.055 124.923 123.082 127.744L134.427 131.656C134.788 130.61 135.139 130.355 135.195 130.315L128.314 120.485ZM123.104 127.682C122.124 130.428 121.755 133.577 121.755 136.9H133.755C133.755 134.356 134.052 132.706 134.405 131.718L123.104 127.682ZM121.757 136.746C121.676 139.909 122.066 142.985 123.198 145.764L134.311 141.236C133.977 140.415 133.7 139.091 133.753 137.054L121.757 136.746ZM123.198 145.764C124.303 148.475 126.028 150.84 128.467 152.582L135.442 142.818C135.081 142.56 134.673 142.125 134.311 141.236L123.198 145.764ZM128.626 152.692C131.217 154.419 134.176 155.1 137.155 155.1V143.1C136 143.1 135.493 142.848 135.283 142.708L128.626 152.692ZM137.155 155.1C140.344 155.1 143.456 154.558 146.238 153.167L140.871 142.433C140.187 142.776 139.032 143.1 137.155 143.1V155.1ZM146.317 153.127C149.12 151.673 151.371 149.538 152.952 146.798L142.558 140.802C142.138 141.528 141.59 142.06 140.793 142.473L146.317 153.127ZM146.585 149.685L162.185 152.785L164.524 141.015L148.924 137.915L146.585 149.685ZM158.034 144.127C156.061 147.914 153.498 150.528 150.376 152.236L156.134 162.764C161.544 159.805 165.715 155.353 168.675 149.673L158.034 144.127ZM150.341 152.255C147.246 153.975 143.144 155 137.755 155V167C144.632 167 150.864 165.692 156.168 162.745L150.341 152.255ZM183.637 148.2L178.575 151.421C178.691 151.604 178.816 151.779 178.951 151.948L183.637 148.2ZM185.737 149.8L183.222 155.248C183.341 155.302 183.461 155.353 183.583 155.4L185.737 149.8ZM192.737 149.4L195.199 154.872C195.273 154.838 195.347 154.803 195.42 154.767L192.737 149.4ZM195.937 146.4L190.835 143.242C190.82 143.265 190.806 143.289 190.792 143.313L195.937 146.4ZM197.237 141.2L203.034 139.654C202.258 136.743 199.444 134.859 196.457 135.251C193.47 135.642 191.237 138.188 191.237 141.2H197.237ZM198.837 147.2H204.837C204.837 146.678 204.769 146.158 204.634 145.654L198.837 147.2ZM196.537 154.7L191.718 151.125C191.693 151.159 191.668 151.193 191.644 151.228L196.537 154.7ZM190.437 159.4L188.159 153.849C188.142 153.856 188.125 153.863 188.108 153.87L190.437 159.4ZM173.837 159.4L171.332 164.852C171.39 164.879 171.449 164.905 171.508 164.93L173.837 159.4ZM167.837 154.5L162.914 157.931C162.931 157.955 162.948 157.978 162.965 158.002L167.837 154.5ZM170.137 136.1L166.364 131.434C166.348 131.447 166.332 131.461 166.315 131.474L170.137 136.1ZM190.737 133L189.492 138.869C189.503 138.872 189.515 138.874 189.527 138.877L190.737 133ZM196.637 134.9L194.04 140.309C194.126 140.35 194.212 140.389 194.299 140.426L196.637 134.9ZM200.537 137.4H206.537C206.537 135.886 205.964 134.427 204.933 133.317L200.537 137.4ZM200.537 144.7L196.651 149.272C198.433 150.786 200.932 151.128 203.055 150.146C205.178 149.164 206.537 147.039 206.537 144.7H200.537ZM185.537 141.7L183.519 136.05L183.519 136.05L185.537 141.7ZM183.537 143.2L188.529 146.528C188.582 146.449 188.633 146.369 188.682 146.287L183.537 143.2ZM174.537 129.1L169.142 131.726C169.863 133.207 171.161 134.327 172.733 134.822C174.304 135.318 176.01 135.145 177.451 134.345L174.537 129.1ZM169.037 117.8L166.658 112.292C165.154 112.941 163.981 114.178 163.411 115.714C162.841 117.25 162.925 118.953 163.642 120.426L169.037 117.8ZM179.137 114.3L180.758 120.077C180.78 120.071 180.802 120.064 180.824 120.058L179.137 114.3ZM202.737 114.4L200.704 120.045C200.749 120.061 200.794 120.077 200.839 120.092L202.737 114.4ZM210.737 119.5L206.172 123.394C206.193 123.419 206.215 123.445 206.238 123.47L210.737 119.5ZM213.737 160V166C217.05 166 219.737 163.314 219.737 160H213.737ZM197.237 160H191.237C191.237 163.314 193.923 166 197.237 166V160ZM196.737 129.2L191.045 131.097C191.091 131.236 191.142 131.373 191.198 131.508L196.737 129.2ZM195.337 127.2L191.323 131.66C191.409 131.737 191.498 131.813 191.589 131.885L195.337 127.2ZM192.737 125.9L190.947 131.627C191.058 131.661 191.169 131.693 191.281 131.721L192.737 125.9ZM183.037 126.1L181.715 120.247C181.701 120.251 181.687 120.254 181.673 120.257L183.037 126.1ZM177.737 127.7L175.55 122.113L177.737 127.7ZM176.937 145.6C176.937 147.565 177.407 149.587 178.575 151.421L188.699 144.979C188.803 145.142 188.869 145.305 188.905 145.44C188.94 145.57 188.937 145.632 188.937 145.6H176.937ZM178.951 151.948C180.132 153.424 181.611 154.504 183.222 155.248L188.251 144.352C188.182 144.32 188.172 144.307 188.198 144.327C188.211 144.337 188.229 144.353 188.252 144.375C188.275 144.397 188.299 144.423 188.322 144.452L178.951 151.948ZM183.583 155.4C185.188 156.017 186.857 156.3 188.537 156.3V144.3C188.216 144.3 188.019 144.249 187.891 144.2L183.583 155.4ZM188.537 156.3C190.849 156.3 193.089 155.821 195.199 154.872L190.274 143.928C189.718 144.179 189.157 144.3 188.537 144.3V156.3ZM195.42 154.767C197.819 153.567 199.721 151.754 201.082 149.487L190.792 143.313C190.552 143.712 190.321 143.9 190.053 144.033L195.42 154.767ZM201.038 149.558C202.625 146.995 203.237 144.1 203.237 141.2H191.237C191.237 142.434 190.982 143.005 190.835 143.242L201.038 149.558ZM191.439 142.746L193.039 148.746L204.634 145.654L203.034 139.654L191.439 142.746ZM192.837 147.2C192.837 149.034 192.379 150.234 191.718 151.125L201.355 158.275C203.761 155.033 204.837 151.233 204.837 147.2H192.837ZM191.644 151.228C190.905 152.269 189.827 153.165 188.159 153.849L192.714 164.951C196.247 163.502 199.235 161.265 201.43 158.172L191.644 151.228ZM188.108 153.87C186.393 154.593 184.396 155 182.037 155V167C185.81 167 189.414 166.341 192.765 164.93L188.108 153.87ZM182.037 155C179.849 155 177.913 154.606 176.165 153.87L171.508 164.93C174.827 166.327 178.358 167 182.037 167V155ZM176.342 153.948C174.787 153.234 173.615 152.259 172.709 150.998L162.965 158.002C165.125 161.008 167.953 163.3 171.332 164.852L176.342 153.948ZM172.759 151.069C172.04 150.037 171.537 148.619 171.537 146.5H159.537C159.537 150.648 160.567 154.563 162.914 157.931L172.759 151.069ZM171.537 146.5C171.537 143.675 172.429 141.989 173.958 140.726L166.315 131.474C161.711 135.278 159.537 140.525 159.537 146.5H171.537ZM173.909 140.766C175.582 139.413 178.535 138.3 183.637 138.3V126.3C177.005 126.3 170.958 127.72 166.364 131.434L173.909 140.766ZM183.637 138.3C185.803 138.3 187.749 138.5 189.492 138.869L191.982 127.131C189.325 126.567 186.537 126.3 183.637 126.3V138.3ZM189.527 138.877C191.428 139.268 192.909 139.766 194.04 140.309L199.233 129.491C197.031 128.434 194.578 127.665 191.947 127.123L189.527 138.877ZM194.299 140.426C195.593 140.973 196.058 141.394 196.14 141.483L204.933 133.317C203.282 131.539 201.147 130.293 198.975 129.374L194.299 140.426ZM194.537 137.4V144.7H206.537V137.4H194.537ZM204.423 140.128C202.348 138.365 199.904 137.146 197.261 136.353L193.813 147.847C195.169 148.254 196.059 148.769 196.651 149.272L204.423 140.128ZM197.261 136.353C194.672 135.576 191.989 135.2 189.237 135.2V147.2C190.884 147.2 192.401 147.424 193.813 147.847L197.261 136.353ZM189.237 135.2C187.35 135.2 185.353 135.394 183.519 136.05L187.555 147.35C187.543 147.355 187.663 147.312 187.965 147.271C188.263 147.231 188.68 147.2 189.237 147.2V135.2ZM183.519 136.05C181.644 136.719 179.683 137.96 178.392 140.113L188.682 146.287C188.454 146.666 188.179 146.943 187.937 147.125C187.821 147.211 187.725 147.268 187.658 147.303C187.592 147.337 187.555 147.35 187.555 147.35L183.519 136.05ZM178.544 139.872C177.278 141.771 176.937 143.858 176.937 145.6H188.937C188.937 145.342 188.995 145.829 188.529 146.528L178.544 139.872ZM179.932 126.474L174.432 115.174L163.642 120.426L169.142 131.726L179.932 126.474ZM171.415 123.308C174.053 122.169 177.159 121.087 180.758 120.077L177.515 108.523C173.514 109.646 169.887 110.897 166.658 112.292L171.415 123.308ZM180.824 120.058C184.103 119.097 187.632 118.6 191.437 118.6V106.6C186.575 106.6 181.904 107.237 177.449 108.542L180.824 120.058ZM191.437 118.6C195.069 118.6 198.131 119.119 200.704 120.045L204.769 108.755C200.675 107.281 196.204 106.6 191.437 106.6V118.6ZM200.839 120.092C203.414 120.95 205.079 122.113 206.172 123.394L215.302 115.606C212.528 112.354 208.859 110.116 204.634 108.708L200.839 120.092ZM206.238 123.47C207.189 124.548 207.737 125.867 207.737 127.8H219.737C219.737 123.199 218.284 118.985 215.236 115.53L206.238 123.47ZM207.737 127.8V160H219.737V127.8H207.737ZM213.737 154H197.237V166H213.737V154ZM203.237 160V131.9H191.237V160H203.237ZM203.237 131.9C203.237 130.229 202.956 128.527 202.275 126.892L191.198 131.508C191.184 131.473 191.237 131.571 191.237 131.9H203.237ZM202.429 127.303C201.792 125.391 200.643 123.761 199.085 122.515L191.589 131.885C191.497 131.812 191.382 131.698 191.271 131.541C191.161 131.383 191.088 131.227 191.045 131.097L202.429 127.303ZM199.35 122.74C197.808 121.352 195.998 120.531 194.192 120.079L191.281 131.721C191.446 131.762 191.51 131.795 191.503 131.792C191.5 131.79 191.479 131.779 191.446 131.757C191.413 131.734 191.37 131.703 191.323 131.66L199.35 122.74ZM194.526 120.173C192.756 119.62 190.897 119.4 189.037 119.4V131.4C189.976 131.4 190.584 131.514 190.947 131.627L194.526 120.173ZM189.037 119.4C186.619 119.4 184.175 119.692 181.715 120.247L184.358 131.953C186.032 131.575 187.588 131.4 189.037 131.4V119.4ZM181.673 120.257C179.458 120.774 177.407 121.386 175.55 122.113L179.923 133.287C181.133 132.814 182.615 132.36 184.4 131.943L181.673 120.257ZM175.55 122.113C174.016 122.713 172.611 123.306 171.623 123.855L177.451 134.345C177.662 134.227 178.391 133.887 179.923 133.287L175.55 122.113ZM224.003 142.5L227.639 137.727C226.24 136.661 224.444 136.263 222.725 136.638C221.006 137.012 219.539 138.122 218.71 139.674L224.003 142.5ZM231.303 147.3L234.055 141.968L234.055 141.968L231.303 147.3ZM236.603 149.4L237.933 143.549L237.933 143.549L236.603 149.4ZM242.903 144.9L238.167 148.584C238.32 148.78 238.485 148.967 238.66 149.143L242.903 144.9ZM240.103 143.1L237.641 148.572C237.674 148.586 237.707 148.601 237.74 148.615L240.103 143.1ZM234.103 140.9L232.206 146.592C232.22 146.597 232.234 146.602 232.249 146.606L234.103 140.9ZM227.803 138.2L224.845 143.42C224.89 143.445 224.934 143.47 224.98 143.494L227.803 138.2ZM222.903 133.7L217.805 136.864C217.848 136.933 217.893 137.002 217.938 137.069L222.903 133.7ZM223.403 119.1L228.104 122.828C228.124 122.803 228.145 122.777 228.165 122.751L223.403 119.1ZM229.703 114.6L231.81 120.218C231.851 120.203 231.891 120.187 231.931 120.171L229.703 114.6ZM246.603 113.9L245.109 119.711C245.173 119.727 245.237 119.743 245.301 119.757L246.603 113.9ZM253.403 116.1L250.998 121.597C251.047 121.618 251.096 121.639 251.145 121.659L253.403 116.1ZM259.703 119.2L265.188 121.632C266.429 118.833 265.364 115.549 262.716 114.011L259.703 119.2ZM254.603 130.7L250.652 135.215C252.087 136.471 254.034 136.97 255.896 136.559C257.759 136.148 259.315 134.876 260.088 133.132L254.603 130.7ZM247.403 126.2L244.889 131.648C244.944 131.673 245 131.698 245.056 131.722L247.403 126.2ZM237.703 125.1L234.019 120.364C233.928 120.435 233.839 120.508 233.752 120.585L237.703 125.1ZM238.103 129.1L234.503 133.9C234.592 133.967 234.683 134.031 234.775 134.092L238.103 129.1ZM241.703 130.7L239.806 136.392L239.806 136.392L241.703 130.7ZM247.803 132.9L245.68 138.512C245.691 138.516 245.703 138.52 245.714 138.525L247.803 132.9ZM254.203 135.9L251.169 141.076C251.238 141.117 251.309 141.156 251.38 141.194L254.203 135.9ZM259.003 140.1L254.07 143.515C254.099 143.557 254.129 143.599 254.159 143.64L259.003 140.1ZM256.203 158.5L252.492 153.786C252.475 153.799 252.459 153.812 252.443 153.825L256.203 158.5ZM233.503 161.2L232.173 167.051C232.183 167.053 232.192 167.055 232.201 167.057L233.503 161.2ZM225.203 158.4L227.717 152.952L227.717 152.952L225.203 158.4ZM217.703 154.3L212.41 151.474C210.935 154.237 211.833 157.67 214.473 159.356L217.703 154.3ZM220.367 147.273C223.319 149.522 226.059 151.346 228.551 152.632L234.055 141.968C232.413 141.121 230.287 139.745 227.639 137.727L220.367 147.273ZM228.551 152.632C230.852 153.819 233.121 154.762 235.273 155.251L237.933 143.549C237.152 143.372 235.888 142.914 234.055 141.968L228.551 152.632ZM235.273 155.251C236.866 155.613 238.522 155.9 240.003 155.9V143.9C240.007 143.9 239.961 143.9 239.856 143.891C239.753 143.882 239.611 143.866 239.426 143.839C239.051 143.784 238.559 143.691 237.933 143.549L235.273 155.251ZM240.003 155.9C241.931 155.9 244.609 155.523 246.789 153.584L238.817 144.616C239.316 144.172 239.784 143.994 240.005 143.931C240.209 143.873 240.238 143.9 240.003 143.9V155.9ZM246.789 153.584C248.883 151.723 249.703 149.24 249.703 146.9H237.703C237.703 146.724 237.732 146.349 237.925 145.878C238.126 145.386 238.442 144.949 238.817 144.616L246.789 153.584ZM249.703 146.9C249.703 144.616 248.878 142.389 247.146 140.657L238.66 149.143C238.382 148.864 238.116 148.487 237.932 148.028C237.751 147.576 237.703 147.176 237.703 146.9H249.703ZM247.639 141.216C246.186 139.348 244.039 138.259 242.467 137.585L237.74 148.615C237.981 148.718 238.172 148.809 238.321 148.886C238.472 148.963 238.563 149.018 238.609 149.047C238.656 149.077 238.631 149.066 238.561 149.006C238.492 148.947 238.343 148.81 238.167 148.584L247.639 141.216ZM242.565 137.628C240.929 136.892 238.68 136.079 235.958 135.194L232.249 146.606C234.859 147.455 236.611 148.108 237.641 148.572L242.565 137.628ZM236 135.208C234.112 134.579 232.323 133.811 230.627 132.906L224.98 143.494C227.283 144.723 229.694 145.755 232.206 146.592L236 135.208ZM230.761 132.98C229.548 132.292 228.607 131.42 227.868 130.331L217.938 137.069C219.733 139.714 222.059 141.841 224.845 143.42L230.761 132.98ZM228.001 130.536C227.55 129.81 227.103 128.53 227.103 126.3H215.103C215.103 130.07 215.856 133.723 217.805 136.864L228.001 130.536ZM227.103 126.3C227.103 124.558 227.544 123.535 228.104 122.828L218.702 115.372C216.195 118.532 215.103 122.309 215.103 126.3H227.103ZM228.165 122.751C228.929 121.754 230.054 120.876 231.81 120.218L227.596 108.982C224.018 110.324 220.944 112.446 218.641 115.449L228.165 122.751ZM231.931 120.171C233.747 119.445 236.063 119 239.003 119V107C234.877 107 230.993 107.622 227.475 109.029L231.931 120.171ZM239.003 119C241.299 119 243.324 119.252 245.109 119.711L248.097 108.089C245.216 107.348 242.174 107 239.003 107V119ZM245.301 119.757C247.344 120.211 249.239 120.827 250.998 121.597L255.808 110.603C253.3 109.506 250.662 108.656 247.905 108.043L245.301 119.757ZM251.145 121.659C253.009 122.416 254.857 123.324 256.69 124.389L262.716 114.011C260.416 112.676 258.064 111.517 255.661 110.541L251.145 121.659ZM254.218 116.768L249.118 128.268L260.088 133.132L265.188 121.632L254.218 116.768ZM258.554 126.185C255.932 123.89 252.988 122.054 249.75 120.678L245.056 131.722C247.151 132.612 249.007 133.776 250.652 135.215L258.554 126.185ZM249.917 120.752C246.845 119.334 243.662 118.4 240.503 118.4V130.4C241.344 130.4 242.762 130.666 244.889 131.648L249.917 120.752ZM240.503 118.4C238.715 118.4 236.172 118.69 234.019 120.364L241.387 129.836C240.877 130.232 240.444 130.362 240.308 130.396C240.176 130.429 240.215 130.4 240.503 130.4V118.4ZM233.752 120.585C232.01 122.109 230.903 124.283 230.903 126.8H242.903C242.903 127.292 242.799 127.863 242.532 128.43C242.27 128.987 241.928 129.376 241.654 129.615L233.752 120.585ZM230.903 126.8C230.903 129.773 232.318 132.261 234.503 133.9L241.703 124.3C241.908 124.454 242.248 124.773 242.523 125.3C242.805 125.84 242.903 126.379 242.903 126.8H230.903ZM234.775 134.092C236.231 135.063 238.019 135.796 239.806 136.392L243.6 125.008C242.187 124.537 241.575 124.204 241.431 124.108L234.775 134.092ZM239.806 136.392C241.3 136.89 243.251 137.593 245.68 138.512L249.926 127.288C247.421 126.34 245.306 125.576 243.6 125.008L239.806 136.392ZM245.714 138.525C247.755 139.283 249.568 140.138 251.169 141.076L257.237 130.724C254.972 129.396 252.518 128.251 249.892 127.275L245.714 138.525ZM251.38 141.194C252.602 141.846 253.454 142.625 254.07 143.515L263.936 136.685C262.152 134.108 259.804 132.087 257.027 130.606L251.38 141.194ZM254.159 143.64C254.459 144.051 254.903 144.984 254.903 147H266.903C266.903 143.283 266.081 139.616 263.847 136.56L254.159 143.64ZM254.903 147C254.903 150.967 253.763 152.785 252.492 153.786L259.914 163.214C264.91 159.282 266.903 153.433 266.903 147H254.903ZM252.443 153.825C250.823 155.127 247.988 156.2 243.103 156.2V168.2C249.552 168.2 255.45 166.806 259.964 163.175L252.443 153.825ZM243.103 156.2C240.095 156.2 237.335 155.905 234.805 155.343L232.201 167.057C235.671 167.828 239.311 168.2 243.103 168.2V156.2ZM234.833 155.349C232.287 154.771 229.919 153.968 227.717 152.952L222.689 163.848C225.687 165.232 228.853 166.296 232.173 167.051L234.833 155.349ZM227.717 152.952C225.363 151.866 223.103 150.63 220.933 149.244L214.473 159.356C217.103 161.037 219.843 162.534 222.689 163.848L227.717 152.952ZM222.996 157.126L229.296 145.326L218.71 139.674L212.41 151.474L222.996 157.126ZM260.571 114V108C257.257 108 254.571 110.686 254.571 114H260.571ZM293.671 114H299.671C299.671 110.686 296.985 108 293.671 108V114ZM293.671 128V134C296.985 134 299.671 131.314 299.671 128H293.671ZM260.571 128H254.571C254.571 131.314 257.257 134 260.571 134V128ZM268.871 98V92C265.557 92 262.871 94.6863 262.871 98H268.871ZM285.371 98H291.371C291.371 94.6863 288.685 92 285.371 92V98ZM285.371 160V166C288.685 166 291.371 163.314 291.371 160H285.371ZM268.871 160H262.871C262.871 163.314 265.557 166 268.871 166V160ZM260.571 120H293.671V108H260.571V120ZM287.671 114V128H299.671V114H287.671ZM293.671 122H260.571V134H293.671V122ZM266.571 128V114H254.571V128H266.571ZM268.871 104H285.371V92H268.871V104ZM279.371 98V160H291.371V98H279.371ZM285.371 154H268.871V166H285.371V154ZM274.871 160V98H262.871V160H274.871Z" fill="#006A04" mask="url(#path-14-outside-2_34_115)"/>
<mask id="path-16-outside-3_34_115" maskUnits="userSpaceOnUse" x="67.7546" y="147" width="32" height="82" fill="black">
<rect fill="white" x="67.7546" y="147" width="32" height="82"/>
<path d="M73.9546 153H93.7546V223H73.9546V153Z"/>
</mask>
<path d="M73.9546 153H93.7546V223H73.9546V153Z" fill="white"/>
<path d="M73.9546 153V147C70.6409 147 67.9546 149.686 67.9546 153H73.9546ZM93.7546 153H99.7546C99.7546 149.686 97.0683 147 93.7546 147V153ZM93.7546 223V229C97.0683 229 99.7546 226.314 99.7546 223H93.7546ZM73.9546 223H67.9546C67.9546 226.314 70.6409 229 73.9546 229V223ZM73.9546 159H93.7546V147H73.9546V159ZM87.7546 153V223H99.7546V153H87.7546ZM93.7546 217H73.9546V229H93.7546V217ZM79.9546 223V153H67.9546V223H79.9546Z" fill="#006A04" mask="url(#path-16-outside-3_34_115)"/>
<mask id="path-18-outside-4_34_115" maskUnits="userSpaceOnUse" x="67.7546" y="74" width="57" height="82" fill="black">
<rect fill="white" x="67.7546" y="74" width="57" height="82"/>
<path d="M87.1546 96.5V80H118.455V96.5H87.1546ZM87.1546 123.7V108.4H117.455V123.7H87.1546ZM73.9546 80H92.5546V150H73.9546V80Z"/>
</mask>
<path d="M87.1546 96.5V80H118.455V96.5H87.1546ZM87.1546 123.7V108.4H117.455V123.7H87.1546ZM73.9546 80H92.5546V150H73.9546V80Z" fill="white"/>
<path d="M87.1546 96.5H81.1546C81.1546 99.8137 83.8409 102.5 87.1546 102.5V96.5ZM87.1546 80V74C83.8409 74 81.1546 76.6863 81.1546 80H87.1546ZM118.455 80H124.455C124.455 76.6863 121.768 74 118.455 74V80ZM118.455 96.5V102.5C121.768 102.5 124.455 99.8137 124.455 96.5H118.455ZM87.1546 123.7H81.1546C81.1546 127.014 83.8409 129.7 87.1546 129.7V123.7ZM87.1546 108.4V102.4C83.8409 102.4 81.1546 105.086 81.1546 108.4H87.1546ZM117.455 108.4H123.455C123.455 105.086 120.768 102.4 117.455 102.4V108.4ZM117.455 123.7V129.7C120.768 129.7 123.455 127.014 123.455 123.7H117.455ZM73.9546 80V74C70.6409 74 67.9546 76.6863 67.9546 80H73.9546ZM92.5546 80H98.5546C98.5546 76.6863 95.8683 74 92.5546 74V80ZM92.5546 150V156C95.8683 156 98.5546 153.314 98.5546 150H92.5546ZM73.9546 150H67.9546C67.9546 153.314 70.6409 156 73.9546 156V150ZM93.1546 96.5V80H81.1546V96.5H93.1546ZM87.1546 86H118.455V74H87.1546V86ZM112.455 80V96.5H124.455V80H112.455ZM118.455 90.5H87.1546V102.5H118.455V90.5ZM93.1546 123.7V108.4H81.1546V123.7H93.1546ZM87.1546 114.4H117.455V102.4H87.1546V114.4ZM111.455 108.4V123.7H123.455V108.4H111.455ZM117.455 117.7H87.1546V129.7H117.455V117.7ZM73.9546 86H92.5546V74H73.9546V86ZM86.5546 80V150H98.5546V80H86.5546ZM92.5546 144H73.9546V156H92.5546V144ZM79.9546 150V80H67.9546V150H79.9546Z" fill="#006A04" mask="url(#path-18-outside-4_34_115)"/>
<path d="M73.9546 118H93.7546V188H73.9546V118Z" fill="white"/>
<path d="M193.955 153H213.755V223H193.955V153Z" fill="white"/>
<mask id="path-22-outside-5_34_115" maskUnits="userSpaceOnUse" x="27.7546" y="149" width="57" height="82" fill="black">
<rect fill="white" x="27.7546" y="149" width="57" height="82"/>
<path d="M47.1546 171.5V155H78.4546V171.5H47.1546ZM47.1546 198.7V183.4H77.4546V198.7H47.1546ZM33.9546 155H52.5546V225H33.9546V155Z"/>
</mask>
<path d="M47.1546 171.5V155H78.4546V171.5H47.1546ZM47.1546 198.7V183.4H77.4546V198.7H47.1546ZM33.9546 155H52.5546V225H33.9546V155Z" fill="white"/>
<path d="M47.1546 171.5H41.1546C41.1546 174.814 43.8409 177.5 47.1546 177.5V171.5ZM47.1546 155V149C43.8409 149 41.1546 151.686 41.1546 155H47.1546ZM78.4546 155H84.4546C84.4546 151.686 81.7683 149 78.4546 149V155ZM78.4546 171.5V177.5C81.7683 177.5 84.4546 174.814 84.4546 171.5H78.4546ZM47.1546 198.7H41.1546C41.1546 202.014 43.8409 204.7 47.1546 204.7V198.7ZM47.1546 183.4V177.4C43.8409 177.4 41.1546 180.086 41.1546 183.4H47.1546ZM77.4546 183.4H83.4546C83.4546 180.086 80.7684 177.4 77.4546 177.4V183.4ZM77.4546 198.7V204.7C80.7684 204.7 83.4546 202.014 83.4546 198.7H77.4546ZM33.9546 155V149C30.6409 149 27.9546 151.686 27.9546 155H33.9546ZM52.5546 155H58.5546C58.5546 151.686 55.8683 149 52.5546 149V155ZM52.5546 225V231C55.8683 231 58.5546 228.314 58.5546 225H52.5546ZM33.9546 225H27.9546C27.9546 228.314 30.6409 231 33.9546 231V225ZM53.1546 171.5V155H41.1546V171.5H53.1546ZM47.1546 161H78.4546V149H47.1546V161ZM72.4546 155V171.5H84.4546V155H72.4546ZM78.4546 165.5H47.1546V177.5H78.4546V165.5ZM53.1546 198.7V183.4H41.1546V198.7H53.1546ZM47.1546 189.4H77.4546V177.4H47.1546V189.4ZM71.4546 183.4V198.7H83.4546V183.4H71.4546ZM77.4546 192.7H47.1546V204.7H77.4546V192.7ZM33.9546 161H52.5546V149H33.9546V161ZM46.5546 155V225H58.5546V155H46.5546ZM52.5546 219H33.9546V231H52.5546V219ZM39.9546 225V155H27.9546V225H39.9546Z" fill="#006A04" mask="url(#path-22-outside-5_34_115)"/>
<defs>
<clipPath id="clip0_34_115">
<rect width="18" height="34" fill="white" transform="translate(46.7845 121) rotate(17.1575)"/>
</clipPath>
<clipPath id="clip1_34_115">
<rect width="18" height="34" fill="white" transform="translate(82.9996 47) rotate(10.584)"/>
</clipPath>
<clipPath id="clip2_34_115">
<rect width="22.2406" height="39.2325" fill="white" transform="translate(56.7546 50.9003) rotate(-10.0999)"/>
</clipPath>
</defs>
</svg>
